<svg width="165" height="42" viewBox="0 0 165 42" fill="none" xmlns="http://www.w3.org/2000/svg">
<circle cx="21" cy="15" r="9" fill="#323748"/>
<circle cx="7" cy="29" r="7" fill="#323748"/>
<circle cx="21" cy="35" r="4" fill="#323748"/>
<path d="M51.62 27.335C50.3717 27.3933 49.3217 27.5042 48.47 27.6675C47.6183 27.8192 46.9358 28.0175 46.4225 28.2625C45.9092 28.5075 45.5417 28.7933 45.32 29.12C45.0983 29.4467 44.9875 29.8025 44.9875 30.1875C44.9875 30.9458 45.2092 31.4883 45.6525 31.815C46.1075 32.1417 46.6967 32.305 47.42 32.305C48.3067 32.305 49.0708 32.1475 49.7125 31.8325C50.3658 31.5058 51.0017 31.0158 51.62 30.3625V27.335ZM41.715 19.5475C43.78 17.6575 46.265 16.7125 49.17 16.7125C50.22 16.7125 51.1592 16.8875 51.9875 17.2375C52.8158 17.5758 53.5158 18.0542 54.0875 18.6725C54.6592 19.2792 55.0908 20.0083 55.3825 20.86C55.6858 21.7117 55.8375 22.645 55.8375 23.66V35H53.8775C53.4692 35 53.1542 34.9417 52.9325 34.825C52.7108 34.6967 52.5358 34.4458 52.4075 34.0725L52.0225 32.7775C51.5675 33.1858 51.1242 33.5475 50.6925 33.8625C50.2608 34.1658 49.8117 34.4225 49.345 34.6325C48.8783 34.8425 48.3767 35 47.84 35.105C47.315 35.2217 46.7317 35.28 46.09 35.28C45.3317 35.28 44.6317 35.1808 43.99 34.9825C43.3483 34.7725 42.7942 34.4633 42.3275 34.055C41.8608 33.6467 41.4992 33.1392 41.2425 32.5325C40.9858 31.9258 40.8575 31.22 40.8575 30.415C40.8575 29.96 40.9333 29.5108 41.085 29.0675C41.2367 28.6125 41.4817 28.1808 41.82 27.7725C42.17 27.3642 42.6192 26.9792 43.1675 26.6175C43.7158 26.2558 44.3867 25.9408 45.18 25.6725C45.985 25.4042 46.9183 25.1883 47.98 25.025C49.0417 24.85 50.255 24.745 51.62 24.71V23.66C51.62 22.4583 51.3633 21.5717 50.85 21C50.3367 20.4167 49.5958 20.125 48.6275 20.125C47.9275 20.125 47.3442 20.2067 46.8775 20.37C46.4225 20.5333 46.02 20.72 45.67 20.93C45.32 21.1283 44.9992 21.3092 44.7075 21.4725C44.4275 21.6358 44.1125 21.7175 43.7625 21.7175C43.4592 21.7175 43.2025 21.6417 42.9925 21.49C42.7825 21.3267 42.6133 21.14 42.485 20.93L41.715 19.5475ZM64.2834 8.995V35H59.9609V8.995H64.2834ZM72.9651 8.995V35H68.6426V8.995H72.9651ZM92.7942 17.2725L85.5667 35H82.7667L75.5392 17.2725H78.0767C78.3334 17.2725 78.5434 17.3367 78.7067 17.465C78.8701 17.5933 78.9809 17.745 79.0392 17.92L83.5367 29.33C83.6767 29.7617 83.7992 30.1817 83.9042 30.59C84.0092 30.9983 84.1084 31.4067 84.2017 31.815C84.2951 31.4067 84.3942 30.9983 84.4992 30.59C84.6042 30.1817 84.7326 29.7617 84.8842 29.33L89.4342 17.92C89.5042 17.7333 89.6209 17.5817 89.7842 17.465C89.9476 17.3367 90.1401 17.2725 90.3617 17.2725H92.7942ZM98.9411 17.2725V35H95.8261V17.2725H98.9411ZM99.6061 11.7075C99.6061 12.0108 99.5419 12.2967 99.4136 12.565C99.2969 12.8217 99.1336 13.055 98.9236 13.265C98.7253 13.4633 98.4861 13.6208 98.2061 13.7375C97.9378 13.8542 97.6519 13.9125 97.3486 13.9125C97.0453 13.9125 96.7594 13.8542 96.4911 13.7375C96.2344 13.6208 96.0069 13.4633 95.8086 13.265C95.6103 13.055 95.4528 12.8217 95.3361 12.565C95.2194 12.2967 95.1611 12.0108 95.1611 11.7075C95.1611 11.4042 95.2194 11.1183 95.3361 10.85C95.4528 10.57 95.6103 10.3308 95.8086 10.1325C96.0069 9.9225 96.2344 9.75917 96.4911 9.6425C96.7594 9.52583 97.0453 9.4675 97.3486 9.4675C97.6519 9.4675 97.9378 9.52583 98.2061 9.6425C98.4861 9.75917 98.7253 9.9225 98.9236 10.1325C99.1336 10.3308 99.2969 10.57 99.4136 10.85C99.5419 11.1183 99.6061 11.4042 99.6061 11.7075ZM114.384 20.195C114.244 20.4517 114.028 20.58 113.737 20.58C113.562 20.58 113.363 20.5158 113.142 20.3875C112.92 20.2592 112.646 20.1192 112.319 19.9675C112.004 19.8042 111.625 19.6583 111.182 19.53C110.738 19.39 110.213 19.32 109.607 19.32C109.082 19.32 108.609 19.39 108.189 19.53C107.769 19.6583 107.408 19.8392 107.104 20.0725C106.813 20.3058 106.585 20.58 106.422 20.895C106.27 21.1983 106.194 21.5308 106.194 21.8925C106.194 22.3475 106.323 22.7267 106.579 23.03C106.848 23.3333 107.198 23.5958 107.629 23.8175C108.061 24.0392 108.551 24.2375 109.099 24.4125C109.648 24.5758 110.208 24.7567 110.779 24.955C111.363 25.1417 111.928 25.3517 112.477 25.585C113.025 25.8183 113.515 26.11 113.947 26.46C114.378 26.81 114.723 27.2417 114.979 27.755C115.248 28.2567 115.382 28.8633 115.382 29.575C115.382 30.3917 115.236 31.15 114.944 31.85C114.653 32.5383 114.221 33.1392 113.649 33.6525C113.078 34.1542 112.378 34.5508 111.549 34.8425C110.721 35.1342 109.764 35.28 108.679 35.28C107.443 35.28 106.323 35.0817 105.319 34.685C104.316 34.2767 103.464 33.7575 102.764 33.1275L103.499 31.9375C103.593 31.7858 103.703 31.6692 103.832 31.5875C103.96 31.5058 104.123 31.465 104.322 31.465C104.532 31.465 104.753 31.5467 104.987 31.71C105.22 31.8733 105.5 32.0542 105.827 32.2525C106.165 32.4508 106.573 32.6317 107.052 32.795C107.53 32.9583 108.125 33.04 108.837 33.04C109.443 33.04 109.974 32.9642 110.429 32.8125C110.884 32.6492 111.263 32.4333 111.567 32.165C111.87 31.8967 112.092 31.5875 112.232 31.2375C112.383 30.8875 112.459 30.5142 112.459 30.1175C112.459 29.6275 112.325 29.225 112.057 28.91C111.8 28.5833 111.456 28.3092 111.024 28.0875C110.593 27.8542 110.097 27.6558 109.537 27.4925C108.988 27.3175 108.423 27.1367 107.839 26.95C107.268 26.7633 106.702 26.5533 106.142 26.32C105.593 26.075 105.103 25.7717 104.672 25.41C104.24 25.0483 103.89 24.605 103.622 24.08C103.365 23.5433 103.237 22.8958 103.237 22.1375C103.237 21.4608 103.377 20.8133 103.657 20.195C103.937 19.565 104.345 19.0167 104.882 18.55C105.418 18.0717 106.078 17.6925 106.859 17.4125C107.641 17.1325 108.533 16.9925 109.537 16.9925C110.703 16.9925 111.748 17.1792 112.669 17.5525C113.603 17.9142 114.408 18.4158 115.084 19.0575L114.384 20.195ZM122.491 17.2725V35H119.376V17.2725H122.491ZM123.156 11.7075C123.156 12.0108 123.092 12.2967 122.963 12.565C122.847 12.8217 122.683 13.055 122.473 13.265C122.275 13.4633 122.036 13.6208 121.756 13.7375C121.488 13.8542 121.202 13.9125 120.898 13.9125C120.595 13.9125 120.309 13.8542 120.041 13.7375C119.784 13.6208 119.557 13.4633 119.358 13.265C119.16 13.055 119.003 12.8217 118.886 12.565C118.769 12.2967 118.711 12.0108 118.711 11.7075C118.711 11.4042 118.769 11.1183 118.886 10.85C119.003 10.57 119.16 10.3308 119.358 10.1325C119.557 9.9225 119.784 9.75917 120.041 9.6425C120.309 9.52583 120.595 9.4675 120.898 9.4675C121.202 9.4675 121.488 9.52583 121.756 9.6425C122.036 9.75917 122.275 9.9225 122.473 10.1325C122.683 10.3308 122.847 10.57 122.963 10.85C123.092 11.1183 123.156 11.4042 123.156 11.7075ZM135.082 16.9925C136.377 16.9925 137.543 17.2083 138.582 17.64C139.62 18.0717 140.507 18.6842 141.242 19.4775C141.977 20.2708 142.537 21.2333 142.922 22.365C143.318 23.485 143.517 24.7392 143.517 26.1275C143.517 27.5275 143.318 28.7875 142.922 29.9075C142.537 31.0275 141.977 31.9842 141.242 32.7775C140.507 33.5708 139.62 34.1833 138.582 34.615C137.543 35.035 136.377 35.245 135.082 35.245C133.775 35.245 132.597 35.035 131.547 34.615C130.508 34.1833 129.622 33.5708 128.887 32.7775C128.152 31.9842 127.586 31.0275 127.189 29.9075C126.804 28.7875 126.612 27.5275 126.612 26.1275C126.612 24.7392 126.804 23.485 127.189 22.365C127.586 21.2333 128.152 20.2708 128.887 19.4775C129.622 18.6842 130.508 18.0717 131.547 17.64C132.597 17.2083 133.775 16.9925 135.082 16.9925ZM135.082 32.8125C136.832 32.8125 138.138 32.2292 139.002 31.0625C139.865 29.8842 140.297 28.245 140.297 26.145C140.297 24.0333 139.865 22.3883 139.002 21.21C138.138 20.0317 136.832 19.4425 135.082 19.4425C134.195 19.4425 133.419 19.5942 132.754 19.8975C132.101 20.2008 131.552 20.6383 131.109 21.21C130.677 21.7817 130.351 22.4875 130.129 23.3275C129.919 24.1558 129.814 25.095 129.814 26.145C129.814 28.245 130.246 29.8842 131.109 31.0625C131.984 32.2292 133.308 32.8125 135.082 32.8125ZM150.408 19.845C150.793 19.4133 151.201 19.0225 151.633 18.6725C152.064 18.3225 152.519 18.025 152.998 17.78C153.488 17.5233 154.001 17.3308 154.538 17.2025C155.086 17.0625 155.675 16.9925 156.305 16.9925C157.273 16.9925 158.125 17.1558 158.86 17.4825C159.607 17.7975 160.225 18.2525 160.715 18.8475C161.217 19.4308 161.596 20.1367 161.853 20.965C162.109 21.7933 162.238 22.7092 162.238 23.7125V35H159.105V23.7125C159.105 22.3708 158.796 21.3325 158.178 20.5975C157.571 19.8508 156.643 19.4775 155.395 19.4775C154.473 19.4775 153.61 19.6992 152.805 20.1425C152.012 20.5858 151.277 21.1867 150.6 21.945V35H147.468V17.2725H149.34C149.783 17.2725 150.058 17.4883 150.163 17.92L150.408 19.845Z" fill="#323748"/>
</svg>
